<?xml version="1.0" encoding="utf-8"?>
<!-- Generator: Adobe Illustrator 24.3.0, SVG Export Plug-In . SVG Version: 6.00 Build 0)  -->
<svg version="1.1" id="Layer_1" xmlns="http://www.w3.org/2000/svg" xmlns:xlink="http://www.w3.org/1999/xlink" x="0px" y="0px"
	 viewBox="0 0 1525.4 346.5" style="enable-background:new 0 0 1525.4 346.5;" xml:space="preserve">
<style type="text/css">
	.st0{fill:url(#text_ideamagix_1_);}
	.st1{fill:url(#Layer_1_);}
	.st2{fill:url(#Layer_copy_1_);}
	.st3{fill:url(#Layer_copy_2_1_);}
</style>
<linearGradient id="text_ideamagix_1_" gradientUnits="userSpaceOnUse" x1="17.372" y1="149.5156" x2="1383.7719" y2="149.5156" gradientTransform="matrix(1 0 0 -1 0 347.2756)">
	<stop  offset="0" style="stop-color:#FF7E00"/>
	<stop  offset="0.35" style="stop-color:#FF0048"/>
	<stop  offset="0.65" style="stop-color:#940BA2"/>
	<stop  offset="1" style="stop-color:#008AFF"/>
</linearGradient>
<path id="text_ideamagix" class="st0" d="M54,132.5H23.5v139.8H54V132.5z M38.6,62.6c-12.1,0-21.2,9.5-21.2,21.6s9.2,21.3,21.2,21.3
	c12.1,0,21.5-9.2,21.5-21.3S50.7,62.6,38.6,62.6z M151.2,128.8c-39,0-69.7,30.8-69.7,73.5c0,42.8,30.7,73.5,69.7,73.5
	c19.8,0,34.2-8,43.8-20.4v16.8h30.4V62.1h-30.4v87.3C185.3,137,170.9,128.8,151.2,128.8z M154.8,157.6c25.2,0,42,19.3,42,44.8
	c0,25.5-16.9,44.8-42,44.8c-26.2,0-42-20.3-42-44.8C112.8,177.8,128.6,157.6,154.8,157.6z M322.2,128.8c-41,0-69.4,29.8-69.4,73.5
	c0,44.4,29.5,73.5,71.3,73.5c21.1,0,40.3-5.1,57.3-19.7l-15.1-21.7c-11.5,9.2-26.3,14.7-40.3,14.7c-19.8,0-37.4-10.5-41.4-35.6h103
	c0.3-3.5,0.6-7.4,0.6-11.4C387.9,158.6,361.2,128.8,322.2,128.8z M321.6,156c19.3,0,32,12.7,35.3,34.4h-72.3
	C287.9,170,299.9,156,321.6,156z M559.5,132.5h-30.4v16.9c-9.6-12.4-24-20.6-43.8-20.6c-39,0-69.6,30.8-69.6,73.5
	c0,42.8,30.7,73.5,69.6,73.5c19.8,0,34.2-8,43.8-20.4v16.8h30.4L559.5,132.5L559.5,132.5z M489,157.6c25.2,0,42,19.3,42,44.8
	c0,25.5-16.9,44.8-42,44.8c-26.2,0-42-20.3-42-44.8C447,177.8,462.8,157.6,489,157.6z M758.9,128.8c-17.3,0-38.8,5-50.9,24.9
	c-9.6-15.5-26.9-24.9-48.1-24.9c-14.2,0-31.5,4.2-42.8,20.7v-17.1h-30.2v139.8h30.5v-77.5c0-23.9,16.4-36.9,36.1-36.9
	c20.4,0,32.4,13.1,32.4,36.6v77.8h30.5v-77.5c0-23.9,16.4-36.9,36.1-36.9c20.4,0,32.4,13.1,32.4,36.6v77.8h30.5v-87.8
	C815.5,151.7,792,128.8,758.9,128.8z M986.8,132.5h-30.4v16.9c-9.6-12.4-24-20.6-43.8-20.6c-39,0-69.7,30.8-69.7,73.5
	c0,42.8,30.7,73.5,69.7,73.5c19.8,0,34.2-8,43.8-20.4v16.8h30.4L986.8,132.5L986.8,132.5z M916.2,157.6c25.2,0,42,19.3,42,44.8
	c0,25.5-16.9,44.8-42,44.8c-26.2,0-42-20.3-42-44.8C874.2,177.8,890.1,157.6,916.2,157.6z M1079.4,128.8
	c-31.8,0-64.6,26.9-64.6,72.1c0,45.2,32.7,72.1,64.6,72.1c20.2,0,35.9-7,46.4-20.4v11.2c0,26-15.7,41.7-44.2,41.7
	c-17,0-33.2-5.6-47.3-14.2l-11,25.8c14.7,10.5,37.5,16.2,58.3,16.2c46.5,0,74.8-27,74.8-70.9v-130h-30.5v16.8
	C1115.3,136,1099.6,128.8,1079.4,128.8z M1087.3,157.6c24.6,0,41.2,18.8,41.2,43.3c0,24.5-16.6,43.3-41.2,43.3
	c-25.7,0-41.2-19.8-41.2-43.3C1046.1,177.3,1061.5,157.6,1087.3,157.6z M1214.2,132.5h-30.5v139.8h30.5V132.5z M1198.8,62.6
	c-12.1,0-21.2,9.5-21.2,21.6s9.2,21.3,21.2,21.3c12.1,0,21.5-9.2,21.5-21.3S1210.9,62.6,1198.8,62.6z M1382.8,132.5h-35.9
	l-34.2,46.7l-33.9-46.7h-37.4l51.6,68.4l-52.5,71.4h35.6l34.9-48.6l35.3,48.6h37.4l-52.5-71.6L1382.8,132.5z"/>
<g>
	
		<linearGradient id="Layer_1_" gradientUnits="userSpaceOnUse" x1="1444.8185" y1="253.6772" x2="1371.9567" y2="222.7492" gradientTransform="matrix(1 0 0 -1 0 347.2756)">
		<stop  offset="8.000000e-02" style="stop-color:#FF7E00"/>
		<stop  offset="0.34" style="stop-color:#FF0048"/>
		<stop  offset="0.63" style="stop-color:#940BA2"/>
		<stop  offset="0.88" style="stop-color:#008AFF"/>
	</linearGradient>
	<path id="Layer" class="st1" d="M1365.4,109.1c0,0,43-0.6,43,45.7c0-46.4,43-45.7,43-45.7s-43,0.6-43-45.7
		C1408.2,109.6,1365.4,109.1,1365.4,109.1z"/>
	
		<linearGradient id="Layer_copy_1_" gradientUnits="userSpaceOnUse" x1="1449.948" y1="319.4669" x2="1411.8088" y2="303.2778" gradientTransform="matrix(1 0 0 -1 0 347.2756)">
		<stop  offset="8.000000e-02" style="stop-color:#FF7E00"/>
		<stop  offset="0.34" style="stop-color:#FF0048"/>
		<stop  offset="0.63" style="stop-color:#940BA2"/>
		<stop  offset="0.88" style="stop-color:#008AFF"/>
	</linearGradient>
	<path id="Layer_copy" class="st2" d="M1408.4,35.9c0,0,22.5-0.3,22.5,23.5c0-23.9,22.5-23.5,22.5-23.5s-22.5,0.3-22.5-23.5
		C1430.8,36.2,1408.4,35.9,1408.4,35.9z"/>
	
		<linearGradient id="Layer_copy_2_1_" gradientUnits="userSpaceOnUse" x1="1508.7249" y1="276.8485" x2="1457.02" y2="254.901" gradientTransform="matrix(1 0 0 -1 0 347.2756)">
		<stop  offset="8.000000e-02" style="stop-color:#FF7E00"/>
		<stop  offset="0.34" style="stop-color:#FF0048"/>
		<stop  offset="0.63" style="stop-color:#940BA2"/>
		<stop  offset="0.88" style="stop-color:#008AFF"/>
	</linearGradient>
	<path id="Layer_copy_2" class="st3" d="M1452.4,81.4c0,0,30.5-0.4,30.5,32c0-32.5,30.5-32,30.5-32s-30.5,0.4-30.5-32
		C1482.7,81.8,1452.4,81.4,1452.4,81.4z"/>
</g>
</svg>
